<?xml version="1.0" encoding="utf-8"?>
<!-- Generator: Adobe Illustrator 21.0.2, SVG Export Plug-In . SVG Version: 6.00 Build 0)  -->
<svg version="1.1" id="Layer_1" xmlns="http://www.w3.org/2000/svg" xmlns:xlink="http://www.w3.org/1999/xlink" x="0px" y="0px"
	 viewBox="0 0 6747 2071" style="enable-background:new 0 0 6747 2071;" xml:space="preserve">
<style type="text/css">
	.st0{fill:#FFFFFF;}
</style>
<path class="st0" d="M6603.4,331.7L6700,81.5l-4.2-15.5l-955.7,251.8C5842,170.4,5807,52.2,5807,52.2S5501.8,247.1,5271,242
	c-230.8-5.1-305.2-66.7-659.1,46.2c-353.9,112.8-453.9,459.1-556.5,533.5s-424.5,316.7-424.5,316.7l0.7,4.3l290.2-92.4
	c0,0-79.6,75-248.7,302.9c0,0-2.9-2.7-7.9-7.3l0.3,1.6c0,0,135.9,207.7,269.3,169.3c13.4-3.9,28.5-10.3,45-18.7
	c53.7,29.9,123.8,59.3,201.2,67.4c0,0-52.4-60.9-96.1-130.2c11.8-7.6,23.9-15.5,36.2-23.5l-5.7,4l110.5,40.6l-12.2-103.9
	c0.4-0.2,0.7-0.5,1.1-0.7l108.6,39.9l-13.5-94.5c13.8-7.2,27.5-14,41.2-20.3l113.2-428.2l468.1-319.3l-37.2,93.6
	c-94.9,233.4-273.1,288.5-273.1,288.5l-74.4,28.2c-55.3,65.4-78.6,81.5-97.6,301c44.6-11.2,87.2-13.9,125.8-3.5
	c200,53.9,269.3,294.9,215.4,361.6c-13.5,16.7-45.6,45.2-86.1,78.7h-81.2l-1.1,65.8c-2.8,2.2-5.6,4.3-8.3,6.5h-82.6l-1,64.2
	c-7.3,5.6-14.6,11-21.6,16.3c-77.6,1.6-175.9-66.1-175.9-66.1c0,61.6,51.3,156.4,51.3,156.4s3.4-1.6,9.1-4.4c-5,3.7-7.8,5.7-7.8,5.7
	s207.7,138.5,338.5,87.2c116.3-45.6,417.4-283,677.3-395.4l786.5-207.2l103.7-268.7l-599.4,157.9v-241.3L6396,869.1l103.7-268.7
	L5692.9,813V571.6L6603.4,331.7z M5176,843.2l186.6-49.2l2.5,9.3l-58.2,150.8l-193.4,51L5176,843.2z M5240.4,1166l-193.4,51
	l62.5-162l186.6-49.2l2.5,9.3L5240.4,1166z M5492.4,1111.9l-193.4,51l62.5-162l186.6-49.2l2.5,9.3L5492.4,1111.9z"/>
<g>
	<path class="st0" d="M186.7,656.5l6.1-30.8c17-89.3,50.9-166.4,114-224.9c46.2-43.1,114-69.3,191-69.3c49.3,0,86.3,7.7,109.4,15.4
		l-43.1,147.9c-18.5-6.2-35.4-9.2-60.1-9.2c-69.3,0-109.4,72.4-121.7,138.6l-6.2,32.3h146.4l-26.2,135.6H353l-118.6,617.8H41.8
		l118.6-617.8"/>
	<path class="st0" d="M816.8,1409.9c1.5-40,4.6-81.7,6.1-126.3h-4.6c-60.1,100.2-132.5,138.7-192.6,138.7
		c-109.4,0-163.3-94-163.3-226.5c0-228,114-551.5,437.5-551.5c75.5,0,151,12.3,197.2,30.8L1014,1094
		c-18.5,87.8-32.4,234.2-30.8,315.8H816.8z M886.1,792.1c-15.4-3.1-29.3-4.6-40-4.6c-126.3,0-194.1,251.1-195.7,362.1
		c0,66.3,9.3,114,57,114c52.4,0,101.7-86.3,129.4-223.4L886.1,792.1z"/>
	<path class="st0" d="M1120.3,1245c30.8,17,67.8,32.3,121.7,30.8c55.5-1.5,86.3-37,86.3-84.7c0-41.6-20-70.9-72.4-112.5
		c-64.7-52.4-95.5-118.6-95.5-183.3c0-138.7,107.8-251.1,278.9-251.1c66.3,0,114,12.3,141.7,27.7l-41.6,140.2
		c-21.6-12.3-57-23.1-89.3-23.1c-61.6,0-100.1,32.3-100.1,83.2c0,38.5,21.6,61.6,57,90.9c84.7,64.7,112.5,138.6,112.5,197.2
		c0,166.4-115.6,258.8-288.1,258.8c-69.3,0-131-20-157.2-38.5L1120.3,1245z"/>
	<path class="st0" d="M1970.7,453.1l-38.5,203.4h295.8l-24.7,135.6H1906l-66.3,349.7c-4.6,26.2-6.2,49.3-6.2,63.2
		c0,46.2,23.1,63.2,58.6,63.2c13.9,0,33.9,0,52.4-3.1l-23.1,144.8c-35.4,9.3-78.6,12.3-115.6,12.3c-115.5,0-172.6-64.7-172.6-166.4
		c0-33.9,6.2-75.5,13.9-112.5l66.3-351.3h-87.8l26.2-135.6h87.8l30.8-155.6L1970.7,453.1z"/>
	<path class="st0" d="M2017,1409.9l144.8-753.4h192.6l-144.8,753.4H2017z M2197.2,463.9c0-55.4,40-118.6,107.8-118.6
		c63.2,0,92.5,47.7,90.9,100.1c-1.5,77-53.9,120.2-110.9,120.2C2223.4,565.6,2195.7,520.9,2197.2,463.9z"/>
	<path class="st0" d="M2474,656.5l6.1-30.8c17-89.3,50.9-166.4,114-224.9c46.2-43.1,114-69.3,191-69.3c49.3,0,86.3,7.7,109.4,15.4
		l-43.1,147.9c-18.5-6.2-35.4-9.2-60.1-9.2c-69.3,0-109.4,72.4-121.7,138.6l-6.2,32.3h223.4l-26.2,135.6h-220.3l-118.6,617.8h-192.6
		l118.6-617.8"/>
	<path class="st0" d="M3007.1,656.5l4.6,362.1c1.5,70.9,3.1,123.3,1.5,178.7h3.1c15.4-61.6,30.8-112.5,57-192.6l114-348.2h194.1
		L3135,1249.6c-74,172.6-158.7,317.4-251.1,402.1c-44.7,41.6-97,74-129.4,87.8l-77-157.2c33.9-17,69.3-37,100.1-61.6
		c43.2-35.5,84.7-78.6,103.2-120.2c3.1-10.8,6.1-18.5,4.6-33.9l-80.1-710.3H3007.1z"/>
</g>
</svg>
